<svg xmlns="http://www.w3.org/2000/svg" viewBox="0 0 640 360" role="img">
<defs><linearGradient id="night" x2="0" y2="1"><stop stop-color="#161a37"/><stop offset=".62" stop-color="#47314f"/><stop offset="1" stop-color="#a65b54"/></linearGradient><linearGradient id="water" x2="0" y2="1"><stop stop-color="#453553"/><stop offset="1" stop-color="#181c31"/></linearGradient><radialGradient id="moon"><stop stop-color="#ffe6b6"/><stop offset="1" stop-color="#df9d82" stop-opacity="0"/></radialGradient></defs>
<rect width="640" height="360" fill="url(#night)"/><circle cx="478" cy="93" r="72" fill="url(#moon)"/><circle cx="478" cy="93" r="29" fill="#f8d9ad"/><g fill="#f6d9bd" opacity=".75"><circle cx="89" cy="56" r="1.5"/><circle cx="142" cy="91" r="1"/><circle cx="209" cy="47" r="1.5"/><circle cx="325" cy="78" r="1"/><circle cx="567" cy="152" r="1.5"/></g><path d="M0 211 87 124l68 90 87-142 86 149 83-96 92 105 66-72 71 72v130H0Z" fill="#262541"/><path d="m0 248 125-66 104 66 112-81 106 83 81-61 112 61v110H0Z" fill="#332d47"/><path d="M0 270q170-31 321 3t319-2v89H0Z" fill="url(#water)"/><path d="M252 277h120v71H252Z" fill="#31233a"/><path d="m238 278 73-62 75 62Z" fill="#201d32"/><path d="M273 236v-38h18v38m40 0v-54h18v54M291 222h40v-29h-40Z" fill="#241d34"/><path d="M299 302h21v46h-21Z" fill="#f2aa66"/><path d="M278 290h12v12h-12zm54-5h13v15h-13z" fill="#f0b575"/><path d="M0 335q75-20 155 0t163 0 161 0 161 0v25H0Z" fill="#171b2c"/><g fill="#d28a6c"><circle cx="66" cy="286" r="3"/><circle cx="84" cy="302" r="2"/><circle cx="553" cy="286" r="3"/><circle cx="574" cy="308" r="2"/></g></svg>
