<svg xmlns="http://www.w3.org/2000/svg" viewBox="0 0 640 360">
<defs><linearGradient id="air" x2="0" y2="1"><stop stop-color="#80aebe"/><stop offset=".55" stop-color="#d0d4bd"/><stop offset="1" stop-color="#e4d8b8"/></linearGradient><linearGradient id="river" x2="0" y2="1"><stop stop-color="#648d8e"/><stop offset="1" stop-color="#355e63"/></linearGradient></defs>
<rect width="640" height="360" fill="url(#air)"/><circle cx="487" cy="103" r="34" fill="#f8e3b7" opacity=".82"/><path d="m0 222 94-112 49 69 86-124 77 128 92-141 81 126 77-85 84 109v168H0Z" fill="#809594"/><path d="m0 246 112-75 88 55 106-71 88 77 104-87 80 71 62-48v192H0Z" fill="#647e71"/><path d="M0 255q119 30 257 3t383 2v100H0Z" fill="url(#river)"/><path d="M0 318q87-20 166 0t155 0 151 0 168 0v42H0Z" fill="#384f43"/><g fill="#304e3c"><path d="M56 279 93 174l37 105zM85 291 123 181l40 110zM524 274l41-116 39 116zM487 291l33-94 35 94z"/></g><g fill="#49644e"><path d="M71 228h45v7H71zm-8 24h59v8H63zm449-27h55v8h-55zm-10 27h67v8h-67z"/></g><path d="M368 263h66v49h-66Z" fill="#9f8461"/><path d="m357 265 43-34 44 34Z" fill="#645849"/><rect x="396" y="278" width="12" height="34" fill="#554735"/><path d="M0 355q120-11 244 0t396 0" fill="none" stroke="#a9baa5" stroke-width="3" opacity=".7"/><g fill="#d5d5bd" opacity=".7"><ellipse cx="199" cy="158" rx="35" ry="3"/><ellipse cx="326" cy="142" rx="29" ry="3"/><ellipse cx="456" cy="176" rx="38" ry="3"/></g></svg>
